<svg width="12" height="12" viewBox="0 0 12 12" fill="none" xmlns="http://www.w3.org/2000/svg">
<path d="M0 5.14355H12V10.0007C12 11.1053 11.1046 12.0007 10 12.0007H2C0.895431 12.0007 0 11.1053 0 10.0007V5.14355Z" fill="#1BB3FC"/>
<path d="M2.57143 0.857631C2.57143 0.384225 2.95522 0.000488281 3.42857 0.000488281C3.90193 0.000488281 4.28571 0.384225 4.28571 0.857631V1.71477H7.71429V0.857631C7.71429 0.384225 8.09807 0.000488281 8.57143 0.000488281C9.04478 0.000488281 9.42857 0.384225 9.42857 0.857631V1.71477H10.2857C11.2325 1.71477 12 2.4823 12 3.42906V4.2862H0V3.42906C0 2.4823 0.767474 1.71477 1.71429 1.71477H2.57143V0.857631Z" fill="#1BB3FC"/>
</svg>
